<svg width="30" height="30" viewBox="0 0 30 30" fill="none" xmlns="http://www.w3.org/2000/svg">
<path d="M2.35547 3.33398H27.6445C28.9453 3.33398 30 4.38867 30 5.68945C30 6.99023 28.9453 8.04492 27.6445 8.04492H2.35547C1.05469 8.04492 0 6.99023 0 5.68945C0 4.38867 1.05469 3.33398 2.35547 3.33398ZM2.35547 12.6445H27.6445C28.9453 12.6445 30 13.6992 30 15C30 16.3008 28.9453 17.3555 27.6445 17.3555H2.35547C1.05469 17.3555 0 16.3008 0 15C0 13.6992 1.05469 12.6445 2.35547 12.6445ZM2.35547 21.9551H27.6445C28.9453 21.9551 30 23.0098 30 24.3105C30 25.6113 28.9453 26.666 27.6445 26.666H2.35547C1.05469 26.666 0 25.6113 0 24.3105C0 23.0098 1.05469 21.9551 2.35547 21.9551Z" fill="#09A494"/>
</svg>
