<svg width="30" height="30" viewBox="0 0 30 30" fill="none" xmlns="http://www.w3.org/2000/svg">
<g clip-path="url(#clip0_662_503)">
<path d="M19.0781 15L29.1562 4.92188C30.2871 3.79688 30.2871 1.97461 29.168 0.843756C28.043 -0.287104 26.2207 -0.287104 25.0898 0.832037L25.084 0.837896L15.0059 10.916L4.92188 0.843756C3.79688 -0.281244 1.96875 -0.281244 0.84375 0.843756C-0.28125 1.96876 -0.28125 3.79688 0.84375 4.92188L10.9219 15L0.84375 25.0781C-0.28125 26.2031 -0.28125 28.0313 0.84375 29.1563C1.96875 30.2813 3.79688 30.2813 4.92188 29.1563L15 19.0781L25.0781 29.1563C26.2031 30.2813 28.0312 30.2813 29.1562 29.1563C30.2812 28.0313 30.2812 26.2031 29.1562 25.0781L19.0781 15Z" fill="#09A494"/>
</g>
<defs>
<clipPath id="clip0_662_503">
<rect width="30" height="30" fill="white"/>
</clipPath>
</defs>
</svg>
