<?xml version="1.0"?>
<svg width="192.672" height="192.672" xmlns="http://www.w3.org/2000/svg" xmlns:svg="http://www.w3.org/2000/svg">
 <g class="layer">
  <title>Layer 1</title>
  <g fill="#ad3652" id="svg_2">
   <path d="m36.58,98.71l-13.9,0l0,-1.08c0,0.58 3.82,-0.86 4.25,-1.15c1.51,-1.15 1.44,-3.24 1.44,-4.97l0,-19.22l0,-8.28c0,-3.39 -2.88,-4.39 -5.69,-4.39l0,-1.08l14.18,0s18.15,23.04 18.44,23.4c-0.22,-0.22 0,-1.66 0,-2.02c0,-1.58 0.07,-3.17 0,-4.75c0,-3.03 0,-6.05 0.07,-9c0,-3.24 0,-5.98 -3.82,-6.48c-0.07,0 -2.01,-0.15 -2.01,-0.07l0,-1.08l14.4,0l0,1.08c0,-0.22 -2.96,0.21 -3.32,0.28c-2.44,0.87 -2.59,3.75 -2.59,5.91c0.07,3.74 0.15,7.41 0.15,11.16l0,22.32l-0.87,0l-26.06,-32.62l0,24.84c0,3.6 1.51,6.12 5.33,6.12l0,1.08zm42.69,37.95l0,-0.58l0,-8.5l0,-13.96c0,-2.09 0.58,-5.26 -0.57,-7.13c-0.58,-0.79 -1.52,-1.15 -2.38,-1.3c-0.22,-0.07 -2.45,-0.29 -2.45,-0.21l0,-1.01l9.72,0c4.03,0 8.07,-0.07 12.1,0.07c3.81,0.14 7.63,0.79 10.22,4.03c2.81,3.46 3.31,8.57 0.51,12.17c-1.66,2.09 -4.04,3.89 -6.56,4.68c0.36,-0.07 4.11,5.83 4.47,6.41c1.58,2.37 3.09,4.82 4.61,7.27c1.08,1.8 2.59,4.18 5.04,4.18l0,1.08l-12.1,0c-3.02,-4.61 -5.9,-9.22 -8.93,-13.83c-1.15,-1.8 -2.45,-4.39 -4.89,-4.39c0,4.32 -0.36,8.86 0.07,13.18c0.29,2.3 1.22,3.6 3.6,3.88l0.86,0.08l0.87,0l0,1.08l-19.59,0c0,-1.3 0.36,-1.01 1.59,-1.16c1,-0.07 2.08,-0.21 2.88,-1c1.15,-1.23 0.93,-3.39 0.93,-5.04zm8.79,-30.53l0,17.28c3.74,0 7.48,-0.15 9.57,-3.67c1.95,-3.24 2.16,-8 -0.5,-10.95c-1.44,-1.73 -3.82,-2.66 -6.12,-2.66l-2.95,0z" id="svg_3"/>
   <path d="m171.94,43.78c-0.15,-0.44 -0.22,-1.01 -0.51,-1.3c-0.86,-0.79 -1.15,-1.8 -2.23,-2.52c-0.72,-0.43 -1.58,-0.58 -2.02,-1.44c-0.86,-1.66 -0.07,-3.02 -2.08,-4.18c-0.65,-0.36 -1.52,-0.43 -1.95,-1.08s-0.21,-1.58 -0.65,-2.23c-0.86,-1.22 -2.52,-2.01 -3.52,-3.02c-0.87,-0.79 -0.87,-2.16 -1.66,-2.95c-1.01,-1.01 -3.1,-0.44 -4.39,-0.51c-0.22,-1.58 -2.45,-2.09 -3.67,-2.37c-1.37,-0.29 -1.95,-1.59 -3.17,-2.31c-1.3,-0.72 -2.67,-0.43 -4.03,-0.43c-2.52,-0.07 -5.98,-0.65 -6.34,-3.74c0.86,-0.36 1.08,-1.01 1.73,-1.66c0.57,-0.58 1.01,-0.65 1.22,-1.51c0.22,-0.72 0,-1.51 0.15,-2.23c0.28,-1.59 1.44,-2.67 2.88,-3.39c-1.23,-2.59 -4.61,-1.15 -6.7,-2.45c-0.86,-0.57 -1.58,-1.08 -2.74,-1c-1.15,0.14 -2.01,0.57 -3.24,0.43c-1.22,-0.07 -1.65,-0.72 -2.73,-1.01c-1.01,-0.22 -2.45,0.14 -3.24,0.65c-0.07,0 0,0.07 0,0.07c-1.59,1.44 -2.67,0.94 -4.32,0.07c-1.37,-0.79 -2.88,-0.79 -4.25,0c-1.22,0.79 -2.38,1.44 -3.89,1.01c-1.51,-0.43 -2.81,-1.01 -4.25,-0.14c-0.64,0.36 -1,0.93 -1.65,1.15c-1.37,0.36 -3.17,0.07 -4.61,0.21c-1.66,0.22 -3.31,0.51 -4.82,1.08c-3.46,1.3 -6.12,3.39 -8.14,6.48c-4.18,6.63 -1.44,15.27 -3.24,22.47c-1.22,5.04 -4.82,10.22 -10.44,10.44c-3.89,0.14 -6.98,-2.45 -9.29,-5.33c-2.73,-3.31 -5.18,-6.84 -7.41,-10.51c-1.66,-2.88 -3.46,-6.12 -4.11,-9.43l-0.21,-1.01l-6.48,6.55l29.3,31.9l-10.51,0l0,1.08c0,-0.08 2.37,0.14 2.59,0.14c0.94,0.22 1.94,0.5 2.52,1.37c1.87,2.73 1.37,5.97 1.37,9.07c-0.07,4.25 -0.22,19.66 -0.79,24.34c-0.36,2.66 -3.32,3.16 -5.62,3.09c0,0.15 -0.07,1.08 -0.07,1.08l32.69,0l1.87,-13.1l-1.08,0c-0.15,0 -1.51,3.45 -1.66,3.74c-0.79,1.95 -2.09,3.46 -3.89,4.61c-3.6,2.38 -12.88,3.74 -12.88,-2.74l0,-12.09c1.22,0.07 2.37,0.21 3.52,0.57c3.75,1.3 4.97,4.97 5.26,8.57l1.08,0l0,-14.04l27.29,29.74l-6.77,0c0,0.36 0,0.72 0.07,1.08c3.96,-0.07 4.54,5.04 5.76,7.77c2.74,6.2 4.9,12.6 7.49,18.8c1.8,4.39 3.53,8.78 5.26,13.17l1.29,0l7.63,-18.29l27.29,29.74l0,-0.5c0.07,-1.37 -0.07,-2.67 -0.21,-4.04c-0.15,-2.23 0.43,-4.46 0.36,-6.69c-0.08,-2.23 -1.16,-3.89 -1.73,-5.98c-0.22,-1.15 0.07,-2.23 0.43,-3.31c0.72,-2.02 0.29,-3.82 0.07,-5.9c-0.29,-2.09 1.8,-3.24 1.44,-5.48c-0.14,-1.08 -0.72,-1.72 -0.65,-2.8c0.08,-1.01 0.22,-1.88 -0.07,-2.96c-0.29,-1 -0.86,-2.01 -0.86,-3.02c-0.07,-1.3 0.43,-2.38 0,-3.67c-0.51,-1.51 -0.72,-2.38 -0.43,-3.89c0.36,-1.87 0.86,-4.46 -0.65,-5.98c-0.79,-0.93 -1.37,-1 -1.59,-2.37c-0.14,-1.01 -0.14,-2.02 -0.21,-3.03c-0.07,-1 -0.22,-2.01 -0.65,-2.95c-0.43,-0.79 -1.22,-1.51 -1.66,-2.3c-0.72,-1.66 0.22,-3.53 -0.28,-5.26c-0.29,-0.86 -0.87,-1.58 -1.16,-2.45c-0.28,-0.86 -0.43,-1.8 -0.86,-2.66c-0.72,-1.37 -2.02,-1.66 -1.8,-3.46c0.22,-1.29 0.79,-2.16 -0.14,-3.38c-0.87,-1.08 -1.95,-1.44 -2.45,-2.74c-0.51,-1.36 -0.65,-2.23 -1.95,-3.02c-0.93,-0.72 -2.01,-1.51 -3.16,-1.66c-1.37,-0.14 -2.67,0.36 -3.53,-0.93c-0.65,-1.01 -0.58,-2.16 -1.95,-2.59c-1.15,-0.29 -2.59,0.28 -3.52,-0.58c-0.8,-0.72 -1.16,-1.73 -1.88,-2.52c-0.36,-0.43 -1.36,-1.01 -0.43,-1.58c1.01,-0.58 2.81,1.29 3.89,1.58c1.37,0.36 3.17,0.58 4.61,0.72c3.09,0.22 5.47,-2.23 8.49,-2.16c1.44,0.07 2.96,0.58 4.32,0.07c1.3,-0.57 1.8,-2.37 3.24,-2.66c1.59,-0.22 2.74,0.93 4.04,-0.65c0.93,-1.15 1.08,-2.59 2.3,-3.53c1.44,-1.08 3.1,-0.86 4.61,-1.58c1.22,-0.65 1.87,-2.31 2.73,-3.39c-0.72,-1 -1.22,-2.08 -1.72,-3.16zm-92.16,32.97l0,-1.87l0,-7.49c0,-1.08 -0.15,-2.59 0.14,-3.81l7.78,8.49c-1.37,3.31 -4.54,4.39 -7.92,4.68zm56.01,47.74a388.46,388.46 0 0 1 -2.81,6.77c0.15,-0.36 -0.86,-2.16 -1,-2.52c-1.44,-3.82 -2.96,-7.56 -4.47,-11.31c-0.43,-1.15 -0.93,-2.3 -1.37,-3.45l9.65,10.51zm-112.03,16.7l-0.07,-0.14c0.21,-0.22 0.36,-0.43 0.5,-0.65c0.36,-0.86 -0.29,-1.58 -1.15,-1.66c-1.3,-0.14 -2.88,0.8 -3.46,1.88a1.15,1.15 0 0 0 0.51,1.65c0.43,0.22 1.29,0 1.44,-0.5l0,-0.07l0,-0.08l0.21,-0.14l0.36,0.79l-1.8,0.87c-0.72,-0.65 -1.44,-1.44 -1.22,-2.45c0.07,-0.72 0.65,-1.3 1.22,-1.66a4.59,4.59 0 0 1 1.01,-0.57c0.72,-0.22 1.59,-0.36 2.31,0c0.64,0.36 1,0.93 1,1.65c0,0.15 0,0.43 0.22,0.43l0.07,0.15l-1.15,0.5zm2.3,1.95s0,0.07 0.08,0.07l0,0.07c0.14,0.29 0.07,0.65 -0.15,1.15c-0.29,0.43 -0.79,0.87 -1.51,1.23c-0.79,0.43 -1.37,0.57 -1.87,0.57c-0.51,-0.07 -0.87,-0.21 -1.08,-0.5l0,-0.07c-0.07,0 -0.07,0 -0.07,-0.08l0,-0.07c-0.15,-0.36 -0.08,-0.72 0.14,-1.15c0.22,-0.43 0.72,-0.86 1.44,-1.3c0.79,-0.43 1.44,-0.57 1.94,-0.5s0.87,0.22 1.01,0.5l0.07,0l0,0.08zm0.29,-0.15c-0.29,-0.5 -0.79,-0.86 -1.44,-0.86a3.54,3.54 0 0 0 -2.09,0.43c-0.72,0.36 -1.22,0.86 -1.58,1.44c-0.29,0.65 -0.36,1.22 -0.07,1.73c0.29,0.57 0.79,0.86 1.51,0.93c0.72,0.08 1.37,-0.07 2.09,-0.43c0.65,-0.43 1.15,-0.86 1.51,-1.51c0.36,-0.58 0.36,-1.15 0.07,-1.73zm-3.02,5.83l4.32,-2.66l0.43,0.65l0.14,0.29c0.08,0.14 0.08,0.36 0.08,0.57c0,0.29 -0.15,0.58 -0.36,0.94c-0.15,0.29 -0.58,0.65 -1.16,1.01s-1.08,0.57 -1.51,0.57c-0.43,0 -0.72,-0.07 -0.93,-0.21c-0.22,-0.08 -0.29,-0.15 -0.36,-0.29c-0.15,-0.07 -0.22,-0.15 -0.22,-0.22l-0.43,-0.65zm4.17,-3.52l-0.21,0.14c0.07,0.07 0,0.22 -0.07,0.29c-0.08,0.14 -0.15,0.21 -0.29,0.36l-3.31,1.94c-0.15,0.15 -0.29,0.22 -0.44,0.22s-0.21,0 -0.28,-0.15l-0.29,0.15l0.93,1.44c0,0.14 0.15,0.21 0.22,0.36c0.14,0.14 0.29,0.29 0.5,0.43c0.29,0.14 0.72,0.22 1.16,0.22c0.43,0 1,-0.15 1.65,-0.58c0.72,-0.43 1.23,-0.86 1.37,-1.37c0.22,-0.5 0.29,-0.93 0.22,-1.37c0,-0.14 -0.08,-0.21 -0.08,-0.36a0.55,0.55 0 0 1 -0.14,-0.28l-0.94,-1.44zm1.23,5.04l-0.15,-0.22l1.3,-1.01l0.29,0.43l-1.44,0.8zm2.01,2.59l-0.14,-0.15c0.14,-0.21 0.29,-0.36 0.36,-0.5c0.07,-0.14 0.14,-0.29 0.14,-0.36c0.08,-0.22 0.08,-0.36 0.08,-0.43c-0.08,-0.15 -0.08,-0.22 -0.15,-0.29c-0.14,-0.14 -0.29,-0.29 -0.5,-0.22c-0.22,0 -0.43,0.08 -0.65,0.22c-0.22,0.14 -0.36,0.29 -0.36,0.5c-0.07,0.15 -0.07,0.29 -0.07,0.51l0,0.14c0.07,0.07 0.07,0.15 0.07,0.22c0,0.07 0,0.14 0.07,0.21l0,0.36c0,0.22 0,0.44 -0.14,0.72c-0.07,0.29 -0.29,0.51 -0.65,0.72l-0.07,0.08c-0.36,0.21 -0.72,0.36 -1.15,0.36s-0.72,-0.15 -0.94,-0.44c0,0 -0.07,-0.14 -0.14,-0.21c0,-0.15 -0.08,-0.29 -0.08,-0.43c-0.07,0 -0.07,-0.08 -0.07,-0.08l0,-0.07l0,-0.07l-0.07,-0.07l0,-0.07c-0.07,0 -0.07,-0.08 -0.14,-0.08l-0.15,0l-0.14,-0.14l1.44,-1.01l0.14,0.15c-0.29,0.36 -0.5,0.64 -0.57,1c-0.15,0.36 -0.08,0.72 0.07,0.94c0.14,0.22 0.36,0.29 0.57,0.29c0.29,0 0.51,-0.07 0.72,-0.22l0.08,-0.07c0.21,-0.14 0.43,-0.36 0.5,-0.58c0.07,-0.21 0.07,-0.36 0.07,-0.57c0,-0.07 0,-0.15 -0.07,-0.22l0,-0.21c-0.07,-0.08 -0.07,-0.15 -0.07,-0.22l0,-0.22c-0.07,-0.21 0,-0.43 0.07,-0.72c0.14,-0.21 0.36,-0.5 0.65,-0.72c0.36,-0.21 0.65,-0.36 1.01,-0.36s0.64,0.15 0.86,0.51c0.07,0 0.07,0 0.07,0.07c0,0 0.07,0 0.07,0.07s0,0.15 0.08,0.22l0,0.57l0.21,0l0.07,0.15l-1.08,0.72zm3.82,2.95c-0.14,-0.14 -0.22,-0.14 -0.36,-0.07c-0.14,0 -0.29,0.07 -0.43,0.21l-2.95,2.38c-0.15,0.14 -0.22,0.22 -0.29,0.36c-0.07,0.14 -0.07,0.22 0,0.36l-0.22,0.14l-0.79,-0.93l0.22,-0.15c0.14,0.08 0.21,0.15 0.36,0.08c0.14,0 0.28,-0.08 0.43,-0.22l2.95,-2.45c0.14,-0.07 0.29,-0.21 0.29,-0.36a0.22,0.22 0 0 0 0,-0.29l0.21,-0.21l0.8,0.93l-0.22,0.22zm-3.53,3.89c0.07,0.07 0.22,0.14 0.29,0.07c0.14,-0.07 0.29,-0.14 0.36,-0.22l2.95,-2.59c0.15,-0.07 0.22,-0.21 0.29,-0.36c0.07,-0.14 0.07,-0.21 0,-0.36l0.22,-0.14l0.5,0.65l-1.66,4.75l2.6,-2.31c0.07,0 0.07,-0.07 0.14,-0.07c0,0 0,-0.07 0.07,-0.07c0.07,-0.07 0.07,-0.14 0.15,-0.22c0,-0.14 0,-0.21 -0.08,-0.28l0.22,-0.22l0.58,0.72l-0.22,0.14c-0.07,-0.07 -0.22,-0.07 -0.36,-0.07c-0.07,0.07 -0.22,0.15 -0.29,0.22l-3.67,3.17l-0.07,-0.08l1.87,-5.4l-3.1,2.67c0,0.07 0,0.07 -0.07,0.07c0,0.07 -0.07,0.07 -0.07,0.14c-0.07,0.08 -0.07,0.15 -0.07,0.22c-0.07,0.07 -0.07,0.14 0,0.22l-0.22,0.21l-0.57,-0.72l0.21,-0.14zm9.07,2.23c-0.07,-0.07 -0.21,-0.14 -0.28,-0.07a1.51,1.51 0 0 0 -0.44,0.29l-1.15,1.22l1.66,1.66l1.22,-1.23c0.15,-0.14 0.22,-0.29 0.29,-0.43c0,-0.07 0,-0.22 -0.07,-0.29l0.21,-0.21l0.8,0.86l-0.15,0.14c-0.07,-0.07 -0.21,-0.07 -0.29,-0.07c-0.07,0.07 -0.14,0.07 -0.21,0.15c-0.07,0 -0.07,0.07 -0.15,0.07c0,0.07 -0.07,0.07 -0.07,0.14l-2.66,2.74c-0.15,0.14 -0.22,0.29 -0.29,0.36c-0.07,0.14 0,0.29 0.07,0.36l-0.21,0.21l-0.87,-0.86l0.22,-0.22c0.14,0.08 0.21,0.15 0.36,0.08c0.07,-0.08 0.21,-0.15 0.36,-0.29l1.22,-1.3l-1.65,-1.65l-1.3,1.29c-0.14,0.15 -0.22,0.29 -0.22,0.43a0.22,0.22 0 0 0 0,0.29l-0.14,0.22l-0.86,-0.79l0.21,-0.22c0.07,0.07 0.22,0.07 0.29,0.07c0.14,-0.07 0.22,-0.14 0.36,-0.29l2.66,-2.8c0.15,-0.15 0.29,-0.22 0.29,-0.36c0.07,-0.15 0.07,-0.22 -0.07,-0.36l0.22,-0.15l0.86,0.79l-0.22,0.22zm3.39,3.1a0.22,0.22 0 0 0 -0.29,0c-0.14,0.07 -0.29,0.21 -0.36,0.28l-2.59,2.88c-0.07,0.15 -0.22,0.29 -0.22,0.36c-0.07,0.15 0,0.29 0.07,0.36l-0.21,0.22l-0.87,-0.79l0.15,-0.22c0.14,0.07 0.29,0.07 0.36,0.07c0.14,-0.07 0.21,-0.21 0.36,-0.28l2.59,-2.88l0.22,-0.44c0.07,-0.14 0,-0.21 -0.08,-0.28l0.22,-0.22l0.86,0.79l-0.21,0.15zm1.58,2.95l-0.14,-0.15c0.07,-0.21 0.14,-0.43 0.14,-0.57c0.07,-0.15 0.07,-0.29 0.07,-0.36c0,-0.22 0,-0.36 -0.07,-0.51c-0.07,-0.07 -0.07,-0.14 -0.14,-0.14c-0.22,-0.14 -0.36,-0.22 -0.58,-0.14c-0.21,0.07 -0.43,0.14 -0.57,0.36s-0.29,0.36 -0.29,0.57c0,0.22 0.07,0.36 0.14,0.51c0,0.07 0.07,0.14 0.07,0.21c0,0.07 0.08,0.07 0.08,0.15c0.07,0.07 0.07,0.14 0.14,0.21c0,0.07 0.07,0.22 0.07,0.29c0.07,0.22 0.07,0.5 0.07,0.79a3.21,3.21 0 0 1 -0.43,0.87s-0.07,0 -0.07,0.07c-0.29,0.29 -0.65,0.5 -1.01,0.65s-0.72,0.07 -1.01,-0.15c-0.07,-0.07 -0.07,-0.14 -0.21,-0.21c-0.07,-0.08 -0.15,-0.22 -0.22,-0.36l0,-0.08l-0.07,-0.07c0,-0.07 0,-0.07 -0.07,-0.07l0,-0.07l-0.07,0l0,-0.07l-0.15,0s-0.07,0 -0.14,0.07l-0.15,-0.15l1.16,-1.36l0.14,0.14c-0.22,0.36 -0.29,0.79 -0.29,1.15c0,0.36 0.07,0.65 0.29,0.79l0,0.08l0.07,0c0.15,0.14 0.36,0.14 0.58,0.07c0.29,-0.07 0.5,-0.22 0.65,-0.43l0.07,0c0.14,-0.22 0.29,-0.51 0.29,-0.72s0,-0.36 -0.08,-0.58c-0.07,-0.07 -0.07,-0.14 -0.07,-0.22l-0.14,-0.14c0,-0.07 -0.07,-0.14 -0.07,-0.22c-0.08,-0.07 -0.08,-0.14 -0.08,-0.21c-0.07,-0.22 -0.14,-0.43 -0.07,-0.72c0,-0.29 0.15,-0.58 0.43,-0.87c0.22,-0.28 0.51,-0.5 0.87,-0.57c0.36,-0.15 0.65,-0.07 0.93,0.21c0.08,0 0.08,0 0.08,0.08c0.07,0 0.07,0 0.07,0.07c0.07,0 0.14,0.07 0.14,0.21c0.07,0.08 0.07,0.15 0.07,0.29l0,0.07l0.08,0l0,0.15l0.21,0l0.15,0.07l-0.87,1.01zm4.39,1.8c-0.14,-0.07 -0.21,-0.07 -0.36,0a1.57,1.57 0 0 0 -0.28,0.36l-1.01,1.37l1.94,1.36l0.94,-1.44c0.14,-0.14 0.21,-0.28 0.21,-0.36c0.08,-0.14 0,-0.21 -0.07,-0.36l0.15,-0.21l1,0.72l-0.21,0.21c-0.07,-0.07 -0.15,-0.07 -0.22,-0.07a1.04,1.04 0 0 1 -0.21,0.15l-0.15,0.14c0,0.07 -0.07,0.07 -0.07,0.07l-2.23,3.17c-0.07,0.14 -0.15,0.29 -0.15,0.43c-0.07,0.15 0,0.22 0.08,0.36l-0.15,0.22l-1.01,-0.72l0.22,-0.22a0.22,0.22 0 0 0 0.29,0c0.14,-0.07 0.21,-0.21 0.36,-0.36l1.01,-1.44l-1.88,-1.37l-1.08,1.44c-0.07,0.22 -0.14,0.36 -0.21,0.44c0,0.14 0,0.28 0.14,0.36l-0.21,0.21l-0.94,-0.72l0.14,-0.21c0.15,0.07 0.22,0.07 0.36,0c0.08,-0.08 0.22,-0.15 0.29,-0.29l2.23,-3.17c0.15,-0.14 0.22,-0.29 0.22,-0.43c0,-0.15 0,-0.22 -0.14,-0.29l0.21,-0.29l0.94,0.72l-0.15,0.22zm4.9,2.95c0.07,0 0.07,0 0.14,0.07c0,0 0.08,0 0.15,0.07l0.07,0c0.07,0 0.07,0.08 0.07,0.08l0.15,0c0,0.07 0.07,0.07 0.07,0.07l-0.58,0.93l-0.14,-0.07c0.14,-0.29 0.14,-0.5 0.07,-0.65c-0.14,-0.21 -0.29,-0.36 -0.5,-0.43l-0.87,-0.57l-1.22,1.94l0.57,0.43l0.08,0l0.07,0.07l0.21,0c0.08,0 0.22,-0.07 0.29,-0.21l0.22,0.07l-0.72,1.08l-0.15,-0.14c0.08,-0.22 0.15,-0.36 0.08,-0.44c0,-0.07 -0.08,-0.07 -0.22,-0.21l-0.65,-0.36l-1.22,2.09l1.01,0.64c0.21,0.15 0.43,0.22 0.72,0.22c0.21,0 0.43,-0.14 0.64,-0.43l0.22,0.07l-0.72,1.01l-2.81,-1.73l0.15,-0.22c0.14,0.08 0.21,0.08 0.36,0a1.57,1.57 0 0 0 0.28,-0.36l2.02,-3.31c0.14,-0.14 0.22,-0.29 0.22,-0.43c0,-0.07 0,-0.22 -0.15,-0.29l0.15,-0.21l1.94,1.22zm1.66,5.33l-1.59,-0.87l2.09,-1.94l0.07,0.07l-0.57,2.74zm1.29,-3.75l-0.07,-0.07c0,0.07 0,0.07 -0.07,0.07l-0.15,0c0,0.08 -0.07,0.08 -0.14,0.08l-0.14,0l-0.15,0.21c0,0.07 0,0.07 0.07,0.07l0,0.15c-0.07,0 -0.07,0 -0.07,0.07c0,0 -0.07,0 -0.14,0.07l-3.03,2.81c0,0.07 -0.07,0.07 -0.14,0.14c0,0 -0.07,0 -0.14,0.08c0,0.07 -0.15,0.07 -0.22,0.14c-0.07,0 -0.14,0 -0.22,-0.07l-0.14,0.29l0.79,0.43l0.15,-0.22c-0.08,-0.07 -0.08,-0.14 -0.08,-0.21l0,-0.15s0,-0.07 0.08,-0.07l0,-0.07c0.07,0 0.07,-0.07 0.14,-0.15l0.58,-0.5l1.72,1.01l-0.14,0.72l0,0.21s-0.07,0 -0.07,0.08s-0.07,0.07 -0.07,0.14c-0.08,0 -0.15,0.07 -0.22,0l-0.14,0.29l1,0.5l0.08,-0.21c-0.08,-0.08 -0.08,-0.15 -0.08,-0.29c-0.07,-0.15 0,-0.29 0,-0.43l1.01,-5.12zm2.81,1.59l-0.07,0.21l-0.29,0c-0.07,0.08 -0.14,0.08 -0.14,0.22l0,0.07c-0.08,0 -0.08,0.07 -0.08,0.07l0,0.22l-0.5,3.96l2.74,-2.81c0.07,0 0.07,0 0.07,-0.07l0.07,0l0,-0.07c0.07,0 0.07,0 0.07,-0.07l0.07,0l0,-0.08a0.54,0.54 0 0 0 0.08,-0.28l-0.15,-0.15l-0.07,-0.07l0.14,-0.22l0.87,0.44l-0.07,0.21c-0.15,0 -0.29,0 -0.36,0.07c-0.15,0.08 -0.22,0.15 -0.36,0.29c0,0 0,0.07 -0.08,0.07l-3.6,3.6l-0.14,-0.07l0.72,-5.25l0,-0.08l0,-0.14l0,-0.22c-0.07,-0.07 -0.07,-0.14 -0.14,-0.14l0.14,-0.29l1.08,0.58zm5.18,2.37l0.15,0c0.07,0.08 0.07,0.08 0.14,0.08l0.07,0l0.08,0.07l0.14,0c0.07,0 0.07,0 0.14,0.07l-0.43,1.01l-0.21,-0.07c0.07,-0.36 0.07,-0.58 -0.08,-0.65a0.74,0.74 0 0 0 -0.43,-0.36l-1.01,-0.43l-0.93,2.16l0.72,0.28l0.07,0c0.07,0.08 0.14,0.08 0.29,0c0.07,0 0.14,-0.07 0.21,-0.28l0.22,0.14l-0.5,1.08l-0.22,-0.07c0.07,-0.22 0.07,-0.36 0,-0.43c0,-0.08 -0.07,-0.08 -0.22,-0.15l-0.64,-0.29l-1.01,2.24l1.15,0.43c0.22,0.14 0.5,0.21 0.72,0.14c0.29,0 0.5,-0.14 0.65,-0.5l0.14,0.07l-0.5,1.08l-3.03,-1.22l0.08,-0.29c0.14,0 0.28,0 0.36,-0.07c0.07,-0.08 0.14,-0.22 0.21,-0.44l1.51,-3.52c0.08,-0.15 0.15,-0.36 0.15,-0.44c0,-0.14 -0.07,-0.21 -0.22,-0.28l0.15,-0.29l2.08,0.93zm-0.5,5.69l0.07,0c0.07,0 0.15,0 0.29,-0.07l0.22,-0.43l1.29,-3.6c0.07,-0.22 0.07,-0.36 0.07,-0.51c0,-0.14 -0.07,-0.21 -0.14,-0.28l0.07,-0.29l0.79,0.29l0.8,4.96l0.07,0l1.15,-3.24l0,-0.07c0.07,-0.07 0.07,-0.07 0.07,-0.14l0,-0.29c0,-0.07 -0.07,-0.14 -0.14,-0.22l0.07,-0.28l0.86,0.36l-0.14,0.21c-0.14,0 -0.22,0.07 -0.29,0.15c-0.07,0.07 -0.14,0.21 -0.21,0.36l-1.66,4.53l-0.14,-0.07l-0.94,-5.62l-1.37,3.89s-0.07,0 -0.07,0.07l0,0.44c0,0.07 0.07,0.14 0.14,0.14l-0.07,0.29l-0.86,-0.36l0.07,-0.22zm4.25,2.81l0,-0.22c0.14,-0.07 0.29,-0.21 0.43,-0.28c0.07,-0.15 0.07,-0.22 0.14,-0.29l-0.07,0l-0.21,-0.22c0,-0.07 0,-0.21 0.07,-0.36l0,-0.07c0.07,-0.07 0.07,-0.14 0.14,-0.14c0.07,-0.08 0.15,-0.08 0.29,-0.08l0.07,0.08c0.07,0 0.07,0.07 0.15,0.14c0,0.14 0,0.29 -0.08,0.43c-0.07,0.22 -0.14,0.43 -0.36,0.58c-0.14,0.21 -0.28,0.29 -0.43,0.43l-0.07,0l-0.07,0zm5.11,-1.51l-1.73,-0.51l1.59,-2.37l0,0.07l0.14,2.81zm0.36,-3.96l-0.07,-0.07l-0.07,0.07c-0.08,0 -0.08,0.07 -0.15,0.07l-0.07,0.07l-0.14,0c0,0.07 -0.08,0.07 -0.08,0.07l-0.07,0.22c0,0.07 0.07,0.07 0.07,0.07l0,0.15c0,0.07 -0.07,0.07 -0.07,0.14l-2.3,3.53s-0.07,0 -0.07,0.07l-0.15,0.14c-0.07,0.08 -0.14,0.15 -0.21,0.15c-0.08,0.07 -0.08,0.07 -0.15,0.07l-0.07,0.29l0.86,0.21l0.08,-0.28a0.16,0.16 0 0 1 -0.15,-0.15s-0.07,-0.07 -0.07,-0.14l0.07,0l0,-0.07l0,-0.08c0,-0.07 0.07,-0.07 0.15,-0.14l0.36,-0.65l1.94,0.51l0.07,0.79l0,0.21c-0.07,0.15 -0.07,0.22 -0.14,0.22c0,0.07 -0.07,0.07 -0.15,0.07l-0.07,0.29l1.08,0.29l0.07,-0.29c-0.07,0 -0.14,-0.07 -0.21,-0.22c0,-0.14 -0.07,-0.28 -0.07,-0.5l-0.22,-5.11zm3.24,1.15a0.55,0.55 0 0 0 -0.29,0.14c-0.07,0.08 -0.14,0.22 -0.14,0.44l-0.94,4.39l1.23,0.21a0.56,0.56 0 0 0 0.57,-0.14c0.22,-0.14 0.36,-0.36 0.43,-0.65l0.22,0l-0.29,1.37l-3.09,-0.72l0.07,-0.22c0.14,0 0.21,-0.07 0.29,-0.14l0.21,-0.43l0.79,-3.75c0.08,-0.21 0.08,-0.36 0,-0.5c0,-0.14 -0.07,-0.22 -0.21,-0.22l0.07,-0.28l1.15,0.21l-0.07,0.29zm3.53,0.72c-0.15,0 -0.22,0 -0.29,0.14c-0.07,0.08 -0.14,0.22 -0.14,0.44l-0.8,4.39l1.3,0.21c0.22,0.08 0.43,0 0.58,-0.21c0.14,-0.15 0.28,-0.36 0.43,-0.65l0.14,0l-0.21,1.37l-3.1,-0.58l0.07,-0.21a0.55,0.55 0 0 0 0.29,-0.15c0.07,-0.14 0.14,-0.29 0.14,-0.5l0.65,-3.75l0,-0.5c0,-0.07 -0.07,-0.22 -0.21,-0.22l0,-0.28l1.22,0.21l-0.07,0.29zm2.59,1.8l-0.14,-0.07l0.07,-1.66l0.5,0.07l-0.43,1.66zm3.38,0.22l-0.21,0c-0.07,-0.29 -0.07,-0.44 -0.15,-0.58l-0.21,-0.43c-0.07,-0.15 -0.15,-0.29 -0.29,-0.29c-0.14,-0.07 -0.22,-0.07 -0.22,-0.07c-0.28,-0.07 -0.43,0 -0.57,0.21c-0.15,0.15 -0.22,0.36 -0.29,0.58c0,0.29 0,0.5 0.14,0.65a0.87,0.87 0 0 0 0.36,0.36l0.15,0.14c0.07,0 0.14,0.07 0.14,0.07c0.07,0.08 0.15,0.08 0.29,0.15c0.07,0.07 0.14,0.07 0.22,0.14c0.14,0.15 0.36,0.36 0.43,0.65c0.14,0.22 0.21,0.58 0.14,0.94l0,0.14c-0.07,0.43 -0.21,0.79 -0.5,1.08a1.13,1.13 0 0 1 -0.87,0.43c-0.07,-0.07 -0.21,-0.07 -0.28,-0.07l-0.44,-0.22l-0.07,0l-0.07,-0.07l-0.07,0c-0.07,0 -0.07,-0.07 -0.07,-0.07l-0.08,0c-0.07,0 -0.07,0.07 -0.14,0.07c0,0 -0.07,0.07 -0.07,0.15l-0.22,0l0.22,-1.8l0.21,0c0,0.43 0.15,0.86 0.36,1.15c0.22,0.29 0.44,0.5 0.72,0.5l0.08,0c0.21,0.07 0.36,-0.07 0.57,-0.21c0.15,-0.22 0.22,-0.44 0.29,-0.72l0,-0.08c0,-0.28 0,-0.5 -0.14,-0.72a0.74,0.74 0 0 0 -0.36,-0.43c-0.08,-0.07 -0.15,-0.07 -0.22,-0.14c-0.07,-0.07 -0.07,-0.07 -0.14,-0.07c-0.08,-0.08 -0.15,-0.08 -0.22,-0.15c-0.07,0 -0.14,-0.07 -0.22,-0.14a1.99,1.99 0 0 1 -0.43,-0.58c-0.14,-0.21 -0.14,-0.5 -0.14,-0.93c0.07,-0.36 0.21,-0.72 0.43,-1.01c0.22,-0.22 0.58,-0.36 0.94,-0.29l0.14,0c0.14,0 0.22,0.07 0.29,0.14c0.07,0 0.14,0.08 0.21,0.22l0.08,0s0,0.07 0.07,0.07l0.07,0c0.07,0 0.07,0 0.07,-0.07l0.22,0l-0.15,1.3zm4.25,1.51l0.07,-2.38l0.8,0c0.07,0 0.14,0 0.21,0.07c0.22,0 0.36,0.15 0.43,0.29c0.15,0.15 0.22,0.43 0.22,0.87c0,0.36 -0.07,0.57 -0.22,0.79a1.51,1.51 0 0 1 -0.43,0.29c-0.07,0.07 -0.14,0.07 -0.29,0.07l-0.79,0zm-0.79,-2.74l0,0.29c0.07,0 0.14,0 0.22,0.07c0,0 0.07,0.07 0.07,0.15l0,0.07s0,0.07 0.07,0.07l0,0.29l-0.14,3.81c0,0.22 0,0.36 -0.08,0.44c-0.07,0.14 -0.14,0.21 -0.28,0.21l0,0.29l1.15,0.07l0,-0.29c-0.07,-0.07 -0.22,-0.14 -0.22,-0.21c-0.07,-0.15 -0.07,-0.29 -0.07,-0.43l0.07,-1.8l0.87,0.07l1.08,2.66l0.72,0.07l0,-0.28c-0.08,0 -0.15,-0.08 -0.22,-0.15c-0.07,-0.07 -0.14,-0.14 -0.14,-0.29c-0.08,0 -0.08,-0.07 -0.08,-0.07l0,-0.07l-0.79,-2.02l0.15,0l0.5,-0.5c0.14,-0.22 0.22,-0.5 0.22,-0.94c0,-0.57 -0.15,-0.93 -0.44,-1.15s-0.64,-0.29 -1.08,-0.36l-1.58,0zm5.18,0.36c-0.14,0 -0.21,0.07 -0.28,0.22s-0.08,0.29 -0.08,0.43l0,3.82c0,0.21 0.08,0.36 0.15,0.5c0,0.07 0.07,0.14 0.21,0.14l0,0.29l-1.15,0l0,-0.21a0.99,0.99 0 0 0 0.29,-0.22c0,-0.14 0.07,-0.29 0.07,-0.5l-0.07,-3.82c0,-0.22 0,-0.36 -0.07,-0.43c-0.07,-0.15 -0.15,-0.22 -0.29,-0.22l0,-0.29l1.22,0l0,0.29zm3.96,0.94l-0.21,0.07c-0.07,-0.36 -0.22,-0.58 -0.36,-0.72s-0.29,-0.29 -0.43,-0.29c-0.08,-0.07 -0.22,-0.07 -0.29,-0.14l-0.22,0c-0.07,0 -0.14,0 -0.21,0.07l-0.15,0c-0.29,0.14 -0.5,0.43 -0.72,0.79c-0.21,0.36 -0.29,0.94 -0.21,1.73l0,0.5c0.07,0.22 0.07,0.36 0.14,0.58c0.07,0.43 0.29,0.79 0.5,1.08c0.22,0.36 0.58,0.5 1.08,0.5c0.29,-0.07 0.51,-0.14 0.72,-0.36c0.22,-0.21 0.29,-0.5 0.29,-0.86c-0.07,-0.22 -0.07,-0.36 -0.14,-0.43c0,-0.15 -0.07,-0.15 -0.15,-0.22l-0.07,0l-0.07,0l0,-0.29l0.86,-0.07l0.08,2.02c-0.22,0.14 -0.44,0.21 -0.65,0.29c-0.15,0.07 -0.29,0.14 -0.51,0.14c-0.07,0 -0.07,0.07 -0.14,0.07l-0.22,0c-0.36,0 -0.57,0 -0.79,-0.07c-0.21,-0.14 -0.43,-0.22 -0.57,-0.29c-0.08,-0.07 -0.15,-0.14 -0.15,-0.21a0.16,0.16 0 0 1 -0.14,-0.15c-0.22,-0.21 -0.36,-0.57 -0.51,-0.93c-0.07,-0.44 -0.14,-0.87 -0.14,-1.3l0,-0.72c0.07,-0.29 0.07,-0.43 0.14,-0.65c0.08,-0.14 0.08,-0.21 0.15,-0.29c0,-0.14 0.07,-0.14 0.07,-0.21c0.14,-0.29 0.36,-0.58 0.65,-0.72c0.21,-0.15 0.5,-0.29 0.79,-0.29l0.5,0c0.15,0.07 0.22,0.07 0.29,0.14l0.07,0l0.08,0.08l0.07,0c0.07,0 0.07,0 0.14,0.07l0.07,0l0,-0.07l0.08,0l0.07,-0.08l0.14,0l0.07,1.23zm1.88,-1.3c-0.15,0.07 -0.22,0.15 -0.22,0.29c-0.07,0.07 -0.07,0.29 -0.07,0.43l0.21,1.73l2.31,-0.29l-0.15,-1.65c-0.07,-0.22 -0.07,-0.36 -0.14,-0.44c-0.07,-0.14 -0.14,-0.21 -0.29,-0.21l0,-0.29l1.15,-0.07l0.08,0.29c-0.15,0 -0.22,0.07 -0.22,0.14c-0.07,0.07 -0.07,0.14 -0.07,0.22c-0.07,0.07 -0.07,0.14 -0.07,0.14a0.22,0.22 0 0 1 0.07,0.14l0.36,3.82c0,0.22 0.07,0.36 0.14,0.5c0,0.08 0.15,0.15 0.29,0.15l0,0.29l-1.15,0.07l-0.07,-0.22a0.56,0.56 0 0 0 0.28,-0.29l0,-0.43l-0.14,-1.8l-2.38,0.22l0.22,1.8c0,0.21 0,0.36 0.07,0.5c0.07,0.07 0.15,0.15 0.29,0.15l0.07,0.28l-1.22,0.08l0,-0.22c0.14,-0.07 0.21,-0.14 0.21,-0.29c0.08,-0.07 0.08,-0.21 0.08,-0.43l-0.44,-3.82c0,-0.21 0,-0.36 -0.07,-0.5c-0.07,-0.07 -0.14,-0.14 -0.29,-0.14l-0.07,-0.29l1.23,-0.07l0,0.21zm3.16,-0.65l1.37,-0.14l1.15,-0.14l1.23,-0.29l0.14,1.08l-0.21,0.07l0,-0.22c-0.08,-0.14 -0.15,-0.21 -0.29,-0.36c-0.07,-0.07 -0.22,-0.07 -0.43,-0.07l-0.8,0.15l0.72,4.39c0,0.21 0.08,0.36 0.08,0.43c0.07,0.14 0.21,0.14 0.36,0.14l0,0.29l-1.16,0.22l-0.07,-0.29a0.99,0.99 0 0 0 0.29,-0.22l0,-0.5l-0.72,-4.39l-0.79,0.14c-0.22,0 -0.36,0.07 -0.43,0.29c-0.08,0.14 -0.08,0.29 -0.08,0.5l-0.21,0l-0.15,-1.08zm8.14,0.36l-0.07,0l-0.43,-0.79l0,-0.07l-0.08,0l0,-0.14c-0.07,0 -0.07,-0.08 -0.07,-0.08c0,-0.14 0,-0.21 0.07,-0.28c0.08,0 0.15,-0.08 0.22,-0.08l0.14,-0.07l0.08,0s0.07,0 0.07,0.07c0.07,0 0.07,0.08 0.14,0.15l0,0.29l-0.07,1zm2.23,-2.37l-0.93,0.29l0.07,0.21c0.07,0 0.14,0 0.21,0.07c0.08,0.08 0.08,0.15 0.15,0.22l0,0.5l-0.22,3.75l-1.29,-2.23l0.07,-1.3l0,-0.07l0,-0.07c0,-0.22 0.07,-0.36 0.14,-0.44c0,-0.14 0.07,-0.21 0.15,-0.21l-0.08,-0.29l-2.16,0.5l0.08,0.29c0.07,0 0.21,0 0.28,0.07a0.99,0.99 0 0 1 0.22,0.29l1.01,1.8l-0.15,2.02l-1.94,-3.31c0,-0.15 -0.07,-0.22 -0.07,-0.22c-0.07,-0.07 -0.07,-0.14 -0.07,-0.14l0,-0.22c0.07,-0.07 0.07,-0.14 0.14,-0.14c0,0 0.07,0 0.07,-0.08l-0.07,-0.21l-1.22,0.29l0,0.28c0.14,-0.07 0.28,0 0.36,0.08c0.07,0.07 0.21,0.14 0.21,0.28l0.07,0l0,0.08l2.52,4.46l0.22,-0.07l0.14,-2.67l1.37,2.38l0.15,-0.07l0.36,-5.04c0,-0.29 0.07,-0.58 0.14,-0.65c0.07,-0.07 0.07,-0.14 0.14,-0.14l-0.07,-0.29zm1.44,-0.15c-0.14,0.08 -0.21,0.15 -0.21,0.29s0,0.29 0.07,0.43l1.08,3.75a0.55,0.55 0 0 0 0.14,0.36c0.07,0.14 0.22,0.14 0.36,0.14l0.07,0.29l-1.15,0.29l-0.07,-0.22c0.14,-0.07 0.22,-0.21 0.22,-0.29c0,-0.14 0,-0.28 -0.08,-0.5l-1.08,-3.67c0,-0.22 -0.07,-0.29 -0.21,-0.43c-0.07,-0.08 -0.15,-0.15 -0.29,-0.08l-0.07,-0.28l1.15,-0.36l0.07,0.28zm0.29,-0.43l1.37,-0.36l1.08,-0.36l1.15,-0.43l0.36,1.01l-0.22,0.07s0,-0.07 -0.07,-0.07l0,-0.07a0.56,0.56 0 0 0 -0.29,-0.29c-0.14,-0.07 -0.28,-0.07 -0.43,-0.07l-0.79,0.28l1.37,4.25c0.07,0.22 0.14,0.36 0.21,0.43c0.08,0.08 0.22,0.15 0.29,0.08l0.15,0.28l-1.16,0.36l-0.07,-0.28c0.07,0 0.15,-0.15 0.22,-0.22c0,-0.14 -0.07,-0.29 -0.15,-0.5l-1.36,-4.25l-0.8,0.29c-0.21,0.07 -0.28,0.14 -0.36,0.36l0,0.5l-0.21,0.07l-0.29,-1.08zm5.11,-1.37c-0.07,0.08 -0.14,0.15 -0.14,0.29s0,0.29 0.07,0.43l0.65,1.59l2.16,-0.87l-0.65,-1.58c-0.07,-0.14 -0.14,-0.29 -0.22,-0.36c-0.07,-0.07 -0.14,-0.14 -0.28,-0.07l-0.15,-0.29l1.15,-0.43l0.08,0.29a0.16,0.16 0 0 0 -0.15,0.14l0,0.43c0.07,0.07 0.07,0.07 0.07,0.15l1.37,3.6c0.07,0.14 0.15,0.28 0.22,0.36c0.14,0.14 0.21,0.14 0.36,0.07l0.14,0.29l-1.15,0.43l-0.07,-0.29c0.07,-0.07 0.14,-0.14 0.14,-0.29c0,-0.07 0,-0.21 -0.07,-0.43l-0.65,-1.66l-2.23,0.8l0.65,1.72c0.07,0.22 0.14,0.29 0.29,0.44c0.07,0.07 0.14,0.07 0.28,0.07l0.15,0.21l-1.15,0.44l-0.08,-0.22c0.08,-0.07 0.15,-0.14 0.15,-0.29s0,-0.29 -0.07,-0.43l-1.37,-3.6c-0.07,-0.22 -0.22,-0.36 -0.29,-0.43c-0.07,-0.07 -0.14,-0.15 -0.29,-0.07l-0.14,-0.29l1.15,-0.43l0.07,0.28zm4.75,-2.3l1.3,-0.58l1.01,-0.5l1.08,-0.58l0.5,1.01l-0.21,0.07l0,-0.07l-0.08,-0.07c-0.07,-0.14 -0.21,-0.22 -0.36,-0.29c-0.14,-0.07 -0.28,-0.07 -0.43,0.07l-0.72,0.29l1.95,4.03c0.07,0.22 0.14,0.36 0.28,0.44c0.08,0.07 0.15,0.07 0.29,0.07l0.15,0.21l-1.08,0.51l-0.15,-0.22c0.15,-0.07 0.22,-0.21 0.22,-0.29c0,-0.14 -0.07,-0.28 -0.15,-0.5l-1.94,-3.96l-0.79,0.36c-0.22,0.07 -0.29,0.22 -0.29,0.36c0,0.22 0,0.36 0.07,0.5l-0.21,0.15l-0.44,-1.01zm4.9,-2.09c-0.14,0.07 -0.14,0.15 -0.14,0.29s0.07,0.29 0.14,0.43l0.86,1.51l2.02,-1.15l-0.79,-1.51c-0.15,-0.14 -0.22,-0.29 -0.29,-0.36c-0.14,-0.07 -0.22,-0.07 -0.36,0l-0.14,-0.29l1.08,-0.57l0.07,0.28c-0.07,0.08 -0.07,0.15 -0.15,0.22c0,0.07 0.08,0.14 0.08,0.29c0,0 0,0.07 0.07,0.07c0,0.07 0,0.14 0.07,0.14l1.87,3.39c0.07,0.14 0.15,0.29 0.29,0.36a0.22,0.22 0 0 0 0.29,0l0.14,0.29l-1.01,0.57l-0.14,-0.29c0.07,-0.07 0.14,-0.14 0.14,-0.28c-0.07,-0.15 -0.07,-0.29 -0.21,-0.44l-0.87,-1.58l-2.01,1.15l0.86,1.59c0.07,0.14 0.22,0.28 0.29,0.36c0.07,0.07 0.22,0.07 0.36,0.07l0.07,0.21l-1.01,0.58l-0.14,-0.22c0.14,-0.07 0.14,-0.21 0.14,-0.36c0,-0.07 -0.07,-0.21 -0.14,-0.43l-1.87,-3.31c-0.07,-0.22 -0.22,-0.29 -0.29,-0.43c-0.07,-0.07 -0.22,-0.07 -0.36,0l-0.14,-0.22l1.08,-0.57l0.14,0.21zm4.75,-3.17s0.07,0 0.15,-0.07c0,0 0.07,-0.07 0.14,-0.07c0,-0.07 0.07,-0.07 0.07,-0.07s0,-0.07 0.07,-0.07c0,-0.08 0.08,-0.08 0.08,-0.08l0.07,-0.07l0.57,0.94l-0.14,0.07c-0.22,-0.22 -0.36,-0.29 -0.58,-0.29c-0.14,0 -0.36,0.07 -0.57,0.22l-0.87,0.57l1.23,1.95l0.57,-0.36c0.08,0 0.08,-0.07 0.08,-0.07l0.07,0c0.07,-0.08 0.07,-0.15 0.14,-0.22c0,-0.07 0,-0.22 -0.07,-0.36l0.14,-0.07l0.65,1.01l-0.14,0.07c-0.22,-0.15 -0.29,-0.22 -0.36,-0.22a0.55,0.55 0 0 0 -0.29,0.15l-0.65,0.36l1.3,2.01l1.01,-0.57c0.21,-0.15 0.43,-0.36 0.57,-0.58c0.15,-0.22 0.07,-0.5 -0.07,-0.79l0.14,-0.15l0.58,1.08l-2.74,1.8l-0.21,-0.28c0.14,-0.08 0.14,-0.15 0.14,-0.29s-0.07,-0.29 -0.14,-0.43l-2.09,-3.24c-0.07,-0.22 -0.22,-0.29 -0.29,-0.36c-0.14,-0.08 -0.21,-0.08 -0.36,-0.08l-0.14,-0.21l1.94,-1.23zm6.19,-2.16l-0.72,-0.57l-0.07,0c-0.07,-0.07 -0.07,-0.07 -0.14,-0.07c0,-0.08 -0.07,-0.08 -0.07,-0.15c-0.08,-0.07 -0.08,-0.14 -0.08,-0.21l0.22,-0.22l0.07,-0.07l0.07,0c0.08,-0.07 0.08,-0.07 0.15,-0.07c0,0.07 0.07,0.07 0.14,0.14c0,0 0,0.07 0.07,0.07l0,0.15l0.36,1zm1.16,-3.09l-0.8,0.65l0.15,0.21l0,-0.07l0.29,0c0.07,0 0.14,0.07 0.21,0.14l0,0.08c0.07,0.07 0.07,0.07 0.07,0.14l0,0.07l0.08,0l0,0.15l1.36,3.52l-0.07,0l-2.01,-1.51l-0.51,-1.22l0,-0.07l0,-0.08c-0.07,-0.14 -0.14,-0.28 -0.14,-0.43s0.07,-0.21 0.14,-0.29l-0.21,-0.21l-1.8,1.37l0.21,0.21c0.07,-0.07 0.15,-0.07 0.29,-0.07c0.07,0.07 0.22,0.14 0.29,0.22l1.65,1.22l0.72,1.87l-3.09,-2.23c-0.07,-0.07 -0.15,-0.14 -0.22,-0.14c0,-0.08 -0.07,-0.08 -0.07,-0.15c-0.07,-0.07 -0.07,-0.14 -0.07,-0.21l0,-0.15l0.07,0l0,-0.07l-0.14,-0.22l-1.01,0.8l0.14,0.21c0.07,-0.07 0.22,-0.07 0.36,-0.07c0.07,0.07 0.22,0.14 0.29,0.22l0.07,0l4.18,3.09l0.14,-0.14l-1.01,-2.52l0.08,0l2.16,1.58l0.14,-0.07l-1.73,-4.75c-0.14,-0.29 -0.21,-0.51 -0.14,-0.65c0,-0.07 0,-0.14 0.07,-0.14l-0.14,-0.29zm1.8,-1.23l0,-0.07l0.07,0c0.29,-0.21 0.65,-0.21 1.15,-0.14c0.5,0.14 1.01,0.57 1.58,1.22c0.58,0.65 0.87,1.23 0.94,1.73c0.07,0.5 0,0.86 -0.29,1.08l0,0.07l-0.07,0.07l-0.07,0c-0.29,0.22 -0.65,0.29 -1.15,0.15c-0.51,-0.15 -1.01,-0.51 -1.59,-1.15c-0.57,-0.65 -0.86,-1.23 -0.93,-1.73c-0.08,-0.51 0.07,-0.94 0.28,-1.15l0,-0.08l0.08,0zm-0.22,-0.28a1.98,1.98 0 0 0 -0.58,1.65c0.15,0.72 0.44,1.37 0.94,1.95c0.5,0.57 1.08,0.93 1.8,1.15c0.65,0.21 1.22,0.07 1.66,-0.29c0.5,-0.43 0.64,-0.94 0.57,-1.66c-0.07,-0.72 -0.43,-1.36 -0.93,-1.94a3.86,3.86 0 0 0 -1.73,-1.15c-0.72,-0.22 -1.3,-0.07 -1.73,0.29zm4.46,-0.22l-1.65,-1.73l0.43,-0.43c0,-0.07 0.07,-0.07 0.14,-0.14s0.15,-0.08 0.22,-0.15c0.14,-0.07 0.29,-0.14 0.5,-0.07c0.22,0 0.44,0.14 0.72,0.43s0.36,0.51 0.44,0.72c0,0.22 0,0.36 -0.08,0.51c0,0.14 -0.07,0.21 -0.14,0.28l-0.14,0.15l-0.44,0.43zm-2.52,-1.37l0.22,0.22c0.07,-0.07 0.14,-0.07 0.14,-0.07l0.22,0s0.07,0 0.07,0.07l0.07,0c0,0.07 0.08,0.07 0.08,0.07c0,0.07 0.07,0.07 0.07,0.07s0,0.07 0.07,0.07l2.66,2.74c0.08,0.14 0.22,0.29 0.22,0.36c0.07,0.14 0.07,0.22 0,0.36l0.14,0.22l0.87,-0.87l-0.15,-0.14c-0.14,0.07 -0.28,0.07 -0.36,0c-0.14,0 -0.28,-0.15 -0.36,-0.29l-1.22,-1.22l0.65,-0.65l2.66,1.15l0.58,-0.5l-0.22,-0.22c-0.07,0.07 -0.14,0.07 -0.29,0.07c-0.07,0 -0.21,0 -0.28,-0.07l-0.08,0c-0.07,0 -0.07,-0.07 -0.14,-0.07l-1.94,-0.79l0.07,-0.08l0,-0.07a1,1 0 0 0 0,-0.65a1.81,1.81 0 0 0 -0.51,-0.86c-0.36,-0.43 -0.72,-0.58 -1.08,-0.5a2,2 0 0 0 -1.08,0.57l-1.08,1.08zm3.89,-3.45c-0.07,0.07 -0.14,0.21 -0.07,0.28c0.07,0.15 0.14,0.29 0.29,0.44l3.24,3.02l0.86,-0.94a0.82,0.82 0 0 0 0.22,-0.57c-0.07,-0.29 -0.22,-0.51 -0.36,-0.72l0.14,-0.15l0.94,0.94l-2.09,2.3l-0.22,-0.21c0.08,-0.07 0.08,-0.22 0,-0.36c0,-0.07 -0.14,-0.22 -0.28,-0.36l-2.81,-2.59c-0.15,-0.15 -0.22,-0.22 -0.36,-0.29c-0.15,-0.07 -0.22,0 -0.36,0.07l-0.15,-0.22l0.8,-0.86l0.21,0.22zm6.05,0.93l-3.89,-3.31l0.51,-0.58c0.07,0 0.14,-0.07 0.21,-0.21c0.15,-0.07 0.36,-0.22 0.58,-0.29c0.21,-0.07 0.57,0 0.93,0.07c0.44,0.07 0.87,0.36 1.37,0.79c0.58,0.44 0.87,0.87 1.01,1.23c0.14,0.43 0.22,0.72 0.14,1.01c-0.07,0.14 -0.07,0.28 -0.14,0.43a0.99,0.99 0 0 1 -0.22,0.29l-0.5,0.57zm-4.68,-2.88l0.22,0.22c0.14,-0.15 0.21,-0.15 0.36,-0.15c0.14,0.08 0.21,0.15 0.43,0.29l2.88,2.45l0.36,0.36c0,0.14 0,0.29 -0.07,0.36l0.21,0.22l1.08,-1.37c0.07,-0.07 0.22,-0.15 0.29,-0.36c0.07,-0.15 0.14,-0.36 0.22,-0.58c0.07,-0.36 0.07,-0.72 -0.08,-1.15c-0.14,-0.43 -0.5,-0.86 -1.08,-1.37c-0.72,-0.57 -1.29,-0.86 -1.8,-0.93c-0.5,0 -1,0.07 -1.29,0.28c-0.15,0.08 -0.22,0.15 -0.36,0.22l-0.22,0.22l-1.15,1.29zm7.06,-0.72c0.07,-0.07 0.14,-0.07 0.21,-0.07c0.07,0 0.15,0.07 0.22,0.14c0.14,0.08 0.21,0.15 0.21,0.29l0,0.22c-0.07,0.07 -0.14,0.07 -0.21,0.07l-0.22,0l-0.07,-0.07l-0.07,0l0,-0.07c-0.07,0 -0.07,-0.08 -0.07,-0.08c-0.08,-0.07 -0.08,-0.14 -0.08,-0.21c-0.07,-0.07 0,-0.07 0,-0.15l0.08,-0.07z" id="svg_4"/>
  </g>
 </g>
</svg>